<?xml version="1.0" encoding="UTF-8"?>
<svg xmlns="http://www.w3.org/2000/svg" xmlns:xlink="http://www.w3.org/1999/xlink" width="15pt" height="14pt" viewBox="0 0 15 14" version="1.1">
<g id="surface1">
<path style=" stroke:none;fill-rule:nonzero;fill:rgb(0%,0%,0%);fill-opacity:1;" d="M 14.832031 12.285156 L 11.726562 9.386719 C 11.613281 9.28125 11.613281 9.171875 11.671875 9.066406 C 12.300781 8.152344 12.648438 7.082031 12.648438 5.898438 C 12.648438 2.628906 9.832031 0 6.324219 0 C 2.820312 0 0.00390625 2.628906 0.00390625 5.898438 C 0.00390625 9.171875 2.820312 11.800781 6.324219 11.800781 C 7.589844 11.800781 8.738281 11.480469 9.714844 10.890625 C 9.832031 10.835938 10.003906 10.835938 10.0625 10.941406 L 13.164062 13.839844 C 13.394531 14.054688 13.738281 14.054688 13.96875 13.839844 L 14.773438 13.089844 C 15.0625 12.820312 15.0625 12.5 14.832031 12.285156 Z M 6.382812 9.65625 C 4.140625 9.65625 2.359375 7.992188 2.359375 5.898438 C 2.359375 3.808594 4.140625 2.144531 6.382812 2.144531 C 8.625 2.144531 10.40625 3.808594 10.40625 5.898438 C 10.40625 7.992188 8.625 9.65625 6.382812 9.65625 Z M 6.382812 9.65625 "/>
</g>
</svg>
